<svg width="326" height="326" viewBox="0 0 326 326" fill="none" xmlns="http://www.w3.org/2000/svg">
<rect width="326" height="326" rx="4" fill="#27272A" fill-opacity="0.25"/>
<mask id="mask0_2_3" style="mask-type:alpha" maskUnits="userSpaceOnUse" x="18" y="18" width="290" height="290">
<path d="M18.4965 18.4965H30.0567V30.0567H18.4965V18.4965ZM30.0567 18.4965H41.617V30.0567H30.0567V18.4965ZM41.617 18.4965H53.1773V30.0567H41.617V18.4965ZM53.1773 18.4965H64.7376V30.0567H53.1773V18.4965ZM64.7376 18.4965H76.2979V30.0567H64.7376V18.4965ZM76.2979 18.4965H87.8582V30.0567H76.2979V18.4965ZM87.8582 18.4965H99.4184V30.0567H87.8582V18.4965ZM145.66 18.4965H157.22V30.0567H145.66V18.4965ZM180.34 18.4965H191.901V30.0567H180.34V18.4965ZM191.901 18.4965H203.461V30.0567H191.901V18.4965ZM203.461 18.4965H215.021V30.0567H203.461V18.4965ZM226.582 18.4965H238.142V30.0567H226.582V18.4965ZM238.142 18.4965H249.702V30.0567H238.142V18.4965ZM249.702 18.4965H261.262V30.0567H249.702V18.4965ZM261.262 18.4965H272.823V30.0567H261.262V18.4965ZM272.823 18.4965H284.383V30.0567H272.823V18.4965ZM284.383 18.4965H295.943V30.0567H284.383V18.4965ZM295.943 18.4965H307.504V30.0567H295.943V18.4965ZM18.4965 30.0567H30.0567V41.617H18.4965V30.0567ZM87.8582 30.0567H99.4184V41.617H87.8582V30.0567ZM122.539 30.0567H134.099V41.617H122.539V30.0567ZM168.78 30.0567H180.34V41.617H168.78V30.0567ZM180.34 30.0567H191.901V41.617H180.34V30.0567ZM203.461 30.0567H215.021V41.617H203.461V30.0567ZM226.582 30.0567H238.142V41.617H226.582V30.0567ZM295.943 30.0567H307.504V41.617H295.943V30.0567ZM18.4965 41.617H30.0567V53.1773H18.4965V41.617ZM41.617 41.617H53.1773V53.1773H41.617V41.617ZM53.1773 41.617H64.7376V53.1773H53.1773V41.617ZM64.7376 41.617H76.2979V53.1773H64.7376V41.617ZM87.8582 41.617H99.4184V53.1773H87.8582V41.617ZM122.539 41.617H134.099V53.1773H122.539V41.617ZM134.099 41.617H145.66V53.1773H134.099V41.617ZM157.22 41.617H168.78V53.1773H157.22V41.617ZM180.34 41.617H191.901V53.1773H180.34V41.617ZM191.901 41.617H203.461V53.1773H191.901V41.617ZM226.582 41.617H238.142V53.1773H226.582V41.617ZM249.702 41.617H261.262V53.1773H249.702V41.617ZM261.262 41.617H272.823V53.1773H261.262V41.617ZM272.823 41.617H284.383V53.1773H272.823V41.617ZM295.943 41.617H307.504V53.1773H295.943V41.617ZM18.4965 53.1773H30.0567V64.7376H18.4965V53.1773ZM41.617 53.1773H53.1773V64.7376H41.617V53.1773ZM53.1773 53.1773H64.7376V64.7376H53.1773V53.1773ZM64.7376 53.1773H76.2979V64.7376H64.7376V53.1773ZM87.8582 53.1773H99.4184V64.7376H87.8582V53.1773ZM110.979 53.1773H122.539V64.7376H110.979V53.1773ZM122.539 53.1773H134.099V64.7376H122.539V53.1773ZM157.22 53.1773H168.78V64.7376H157.22V53.1773ZM180.34 53.1773H191.901V64.7376H180.34V53.1773ZM191.901 53.1773H203.461V64.7376H191.901V53.1773ZM226.582 53.1773H238.142V64.7376H226.582V53.1773ZM249.702 53.1773H261.262V64.7376H249.702V53.1773ZM261.262 53.1773H272.823V64.7376H261.262V53.1773ZM272.823 53.1773H284.383V64.7376H272.823V53.1773ZM295.943 53.1773H307.504V64.7376H295.943V53.1773ZM18.4965 64.7376H30.0567V76.2979H18.4965V64.7376ZM41.617 64.7376H53.1773V76.2979H41.617V64.7376ZM53.1773 64.7376H64.7376V76.2979H53.1773V64.7376ZM64.7376 64.7376H76.2979V76.2979H64.7376V64.7376ZM87.8582 64.7376H99.4184V76.2979H87.8582V64.7376ZM134.099 64.7376H145.66V76.2979H134.099V64.7376ZM145.66 64.7376H157.22V76.2979H145.66V64.7376ZM157.22 64.7376H168.78V76.2979H157.22V64.7376ZM168.78 64.7376H180.34V76.2979H168.78V64.7376ZM180.34 64.7376H191.901V76.2979H180.34V64.7376ZM226.582 64.7376H238.142V76.2979H226.582V64.7376ZM249.702 64.7376H261.262V76.2979H249.702V64.7376ZM261.262 64.7376H272.823V76.2979H261.262V64.7376ZM272.823 64.7376H284.383V76.2979H272.823V64.7376ZM295.943 64.7376H307.504V76.2979H295.943V64.7376ZM18.4965 76.2979H30.0567V87.8582H18.4965V76.2979ZM87.8582 76.2979H99.4184V87.8582H87.8582V76.2979ZM110.979 76.2979H122.539V87.8582H110.979V76.2979ZM145.66 76.2979H157.22V87.8582H145.66V76.2979ZM203.461 76.2979H215.021V87.8582H203.461V76.2979ZM226.582 76.2979H238.142V87.8582H226.582V76.2979ZM295.943 76.2979H307.504V87.8582H295.943V76.2979ZM18.4965 87.8582H30.0567V99.4184H18.4965V87.8582ZM30.0567 87.8582H41.617V99.4184H30.0567V87.8582ZM41.617 87.8582H53.1773V99.4184H41.617V87.8582ZM53.1773 87.8582H64.7376V99.4184H53.1773V87.8582ZM64.7376 87.8582H76.2979V99.4184H64.7376V87.8582ZM76.2979 87.8582H87.8582V99.4184H76.2979V87.8582ZM87.8582 87.8582H99.4184V99.4184H87.8582V87.8582ZM110.979 87.8582H122.539V99.4184H110.979V87.8582ZM134.099 87.8582H145.66V99.4184H134.099V87.8582ZM157.22 87.8582H168.78V99.4184H157.22V87.8582ZM180.34 87.8582H191.901V99.4184H180.34V87.8582ZM203.461 87.8582H215.021V99.4184H203.461V87.8582ZM226.582 87.8582H238.142V99.4184H226.582V87.8582ZM238.142 87.8582H249.702V99.4184H238.142V87.8582ZM249.702 87.8582H261.262V99.4184H249.702V87.8582ZM261.262 87.8582H272.823V99.4184H261.262V87.8582ZM272.823 87.8582H284.383V99.4184H272.823V87.8582ZM284.383 87.8582H295.943V99.4184H284.383V87.8582ZM295.943 87.8582H307.504V99.4184H295.943V87.8582ZM110.979 99.4184H122.539V110.979H110.979V99.4184ZM122.539 99.4184H134.099V110.979H122.539V99.4184ZM134.099 99.4184H145.66V110.979H134.099V99.4184ZM180.34 99.4184H191.901V110.979H180.34V99.4184ZM191.901 99.4184H203.461V110.979H191.901V99.4184ZM203.461 99.4184H215.021V110.979H203.461V99.4184ZM30.0567 110.979H41.617V122.539H30.0567V110.979ZM41.617 110.979H53.1773V122.539H41.617V110.979ZM87.8582 110.979H99.4184V122.539H87.8582V110.979ZM168.78 110.979H180.34V122.539H168.78V110.979ZM180.34 110.979H191.901V122.539H180.34V110.979ZM203.461 110.979H215.021V122.539H203.461V110.979ZM226.582 110.979H238.142V122.539H226.582V110.979ZM238.142 110.979H249.702V122.539H238.142V110.979ZM261.262 110.979H272.823V122.539H261.262V110.979ZM30.0567 122.539H41.617V134.099H30.0567V122.539ZM41.617 122.539H53.1773V134.099H41.617V122.539ZM64.7376 122.539H76.2979V134.099H64.7376V122.539ZM99.4184 122.539H110.979V134.099H99.4184V122.539ZM134.099 122.539H145.66V134.099H134.099V122.539ZM145.66 122.539H157.22V134.099H145.66V122.539ZM157.22 122.539H168.78V134.099H157.22V122.539ZM168.78 122.539H180.34V134.099H168.78V122.539ZM180.34 122.539H191.901V134.099H180.34V122.539ZM191.901 122.539H203.461V134.099H191.901V122.539ZM203.461 122.539H215.021V134.099H203.461V122.539ZM226.582 122.539H238.142V134.099H226.582V122.539ZM238.142 122.539H249.702V134.099H238.142V122.539ZM261.262 122.539H272.823V134.099H261.262V122.539ZM284.383 122.539H295.943V134.099H284.383V122.539ZM295.943 122.539H307.504V134.099H295.943V122.539ZM87.8582 134.099H99.4184V145.66H87.8582V134.099ZM145.66 134.099H157.22V145.66H145.66V134.099ZM191.901 134.099H203.461V145.66H191.901V134.099ZM215.021 134.099H226.582V145.66H215.021V134.099ZM238.142 134.099H249.702V145.66H238.142V134.099ZM261.262 134.099H272.823V145.66H261.262V134.099ZM272.823 134.099H284.383V145.66H272.823V134.099ZM295.943 134.099H307.504V145.66H295.943V134.099ZM18.4965 145.66H30.0567V157.22H18.4965V145.66ZM30.0567 145.66H41.617V157.22H30.0567V145.66ZM64.7376 145.66H76.2979V157.22H64.7376V145.66ZM99.4184 145.66H110.979V157.22H99.4184V145.66ZM122.539 145.66H134.099V157.22H122.539V145.66ZM134.099 145.66H145.66V157.22H134.099V145.66ZM168.78 145.66H180.34V157.22H168.78V145.66ZM191.901 145.66H203.461V157.22H191.901V145.66ZM215.021 145.66H226.582V157.22H215.021V145.66ZM238.142 145.66H249.702V157.22H238.142V145.66ZM261.262 145.66H272.823V157.22H261.262V145.66ZM18.4965 157.22H30.0567V168.78H18.4965V157.22ZM30.0567 157.22H41.617V168.78H30.0567V157.22ZM53.1773 157.22H64.7376V168.78H53.1773V157.22ZM87.8582 157.22H99.4184V168.78H87.8582V157.22ZM99.4184 157.22H110.979V168.78H99.4184V157.22ZM110.979 157.22H122.539V168.78H110.979V157.22ZM122.539 157.22H134.099V168.78H122.539V157.22ZM134.099 157.22H145.66V168.78H134.099V157.22ZM168.78 157.22H180.34V168.78H168.78V157.22ZM191.901 157.22H203.461V168.78H191.901V157.22ZM203.461 157.22H215.021V168.78H203.461V157.22ZM226.582 157.22H238.142V168.78H226.582V157.22ZM238.142 157.22H249.702V168.78H238.142V157.22ZM295.943 157.22H307.504V168.78H295.943V157.22ZM41.617 168.78H53.1773V180.34H41.617V168.78ZM53.1773 168.78H64.7376V180.34H53.1773V168.78ZM64.7376 168.78H76.2979V180.34H64.7376V168.78ZM134.099 168.78H145.66V180.34H134.099V168.78ZM145.66 168.78H157.22V180.34H145.66V168.78ZM157.22 168.78H168.78V180.34H157.22V168.78ZM191.901 168.78H203.461V180.34H191.901V168.78ZM203.461 168.78H215.021V180.34H203.461V168.78ZM226.582 168.78H238.142V180.34H226.582V168.78ZM238.142 168.78H249.702V180.34H238.142V168.78ZM284.383 168.78H295.943V180.34H284.383V168.78ZM295.943 168.78H307.504V180.34H295.943V168.78ZM18.4965 180.34H30.0567V191.901H18.4965V180.34ZM30.0567 180.34H41.617V191.901H30.0567V180.34ZM53.1773 180.34H64.7376V191.901H53.1773V180.34ZM76.2979 180.34H87.8582V191.901H76.2979V180.34ZM87.8582 180.34H99.4184V191.901H87.8582V180.34ZM110.979 180.34H122.539V191.901H110.979V180.34ZM122.539 180.34H134.099V191.901H122.539V180.34ZM134.099 180.34H145.66V191.901H134.099V180.34ZM157.22 180.34H168.78V191.901H157.22V180.34ZM191.901 180.34H203.461V191.901H191.901V180.34ZM203.461 180.34H215.021V191.901H203.461V180.34ZM226.582 180.34H238.142V191.901H226.582V180.34ZM261.262 180.34H272.823V191.901H261.262V180.34ZM272.823 180.34H284.383V191.901H272.823V180.34ZM295.943 180.34H307.504V191.901H295.943V180.34ZM41.617 191.901H53.1773V203.461H41.617V191.901ZM53.1773 191.901H64.7376V203.461H53.1773V191.901ZM64.7376 191.901H76.2979V203.461H64.7376V191.901ZM99.4184 191.901H110.979V203.461H99.4184V191.901ZM134.099 191.901H145.66V203.461H134.099V191.901ZM180.34 191.901H191.901V203.461H180.34V191.901ZM191.901 191.901H203.461V203.461H191.901V191.901ZM203.461 191.901H215.021V203.461H203.461V191.901ZM215.021 191.901H226.582V203.461H215.021V191.901ZM226.582 191.901H238.142V203.461H226.582V191.901ZM238.142 191.901H249.702V203.461H238.142V191.901ZM249.702 191.901H261.262V203.461H249.702V191.901ZM261.262 191.901H272.823V203.461H261.262V191.901ZM18.4965 203.461H30.0567V215.021H18.4965V203.461ZM30.0567 203.461H41.617V215.021H30.0567V203.461ZM41.617 203.461H53.1773V215.021H41.617V203.461ZM64.7376 203.461H76.2979V215.021H64.7376V203.461ZM87.8582 203.461H99.4184V215.021H87.8582V203.461ZM110.979 203.461H122.539V215.021H110.979V203.461ZM145.66 203.461H157.22V215.021H145.66V203.461ZM203.461 203.461H215.021V215.021H203.461V203.461ZM215.021 203.461H226.582V215.021H215.021V203.461ZM226.582 203.461H238.142V215.021H226.582V203.461ZM238.142 203.461H249.702V215.021H238.142V203.461ZM249.702 203.461H261.262V215.021H249.702V203.461ZM284.383 203.461H295.943V215.021H284.383V203.461ZM110.979 215.021H122.539V226.582H110.979V215.021ZM122.539 215.021H134.099V226.582H122.539V215.021ZM134.099 215.021H145.66V226.582H134.099V215.021ZM145.66 215.021H157.22V226.582H145.66V215.021ZM168.78 215.021H180.34V226.582H168.78V215.021ZM180.34 215.021H191.901V226.582H180.34V215.021ZM203.461 215.021H215.021V226.582H203.461V215.021ZM249.702 215.021H261.262V226.582H249.702V215.021ZM295.943 215.021H307.504V226.582H295.943V215.021ZM18.4965 226.582H30.0567V238.142H18.4965V226.582ZM30.0567 226.582H41.617V238.142H30.0567V226.582ZM41.617 226.582H53.1773V238.142H41.617V226.582ZM53.1773 226.582H64.7376V238.142H53.1773V226.582ZM64.7376 226.582H76.2979V238.142H64.7376V226.582ZM76.2979 226.582H87.8582V238.142H76.2979V226.582ZM87.8582 226.582H99.4184V238.142H87.8582V226.582ZM134.099 226.582H145.66V238.142H134.099V226.582ZM145.66 226.582H157.22V238.142H145.66V226.582ZM180.34 226.582H191.901V238.142H180.34V226.582ZM203.461 226.582H215.021V238.142H203.461V226.582ZM226.582 226.582H238.142V238.142H226.582V226.582ZM249.702 226.582H261.262V238.142H249.702V226.582ZM295.943 226.582H307.504V238.142H295.943V226.582ZM18.4965 238.142H30.0567V249.702H18.4965V238.142ZM87.8582 238.142H99.4184V249.702H87.8582V238.142ZM122.539 238.142H134.099V249.702H122.539V238.142ZM134.099 238.142H145.66V249.702H134.099V238.142ZM157.22 238.142H168.78V249.702H157.22V238.142ZM168.78 238.142H180.34V249.702H168.78V238.142ZM203.461 238.142H215.021V249.702H203.461V238.142ZM249.702 238.142H261.262V249.702H249.702V238.142ZM284.383 238.142H295.943V249.702H284.383V238.142ZM18.4965 249.702H30.0567V261.262H18.4965V249.702ZM41.617 249.702H53.1773V261.262H41.617V249.702ZM53.1773 249.702H64.7376V261.262H53.1773V249.702ZM64.7376 249.702H76.2979V261.262H64.7376V249.702ZM87.8582 249.702H99.4184V261.262H87.8582V249.702ZM122.539 249.702H134.099V261.262H122.539V249.702ZM134.099 249.702H145.66V261.262H134.099V249.702ZM180.34 249.702H191.901V261.262H180.34V249.702ZM191.901 249.702H203.461V261.262H191.901V249.702ZM203.461 249.702H215.021V261.262H203.461V249.702ZM215.021 249.702H226.582V261.262H215.021V249.702ZM226.582 249.702H238.142V261.262H226.582V249.702ZM238.142 249.702H249.702V261.262H238.142V249.702ZM249.702 249.702H261.262V261.262H249.702V249.702ZM284.383 249.702H295.943V261.262H284.383V249.702ZM295.943 249.702H307.504V261.262H295.943V249.702ZM18.4965 261.262H30.0567V272.823H18.4965V261.262ZM41.617 261.262H53.1773V272.823H41.617V261.262ZM53.1773 261.262H64.7376V272.823H53.1773V261.262ZM64.7376 261.262H76.2979V272.823H64.7376V261.262ZM87.8582 261.262H99.4184V272.823H87.8582V261.262ZM122.539 261.262H134.099V272.823H122.539V261.262ZM134.099 261.262H145.66V272.823H134.099V261.262ZM145.66 261.262H157.22V272.823H145.66V261.262ZM157.22 261.262H168.78V272.823H157.22V261.262ZM191.901 261.262H203.461V272.823H191.901V261.262ZM215.021 261.262H226.582V272.823H215.021V261.262ZM249.702 261.262H261.262V272.823H249.702V261.262ZM272.823 261.262H284.383V272.823H272.823V261.262ZM284.383 261.262H295.943V272.823H284.383V261.262ZM18.4965 272.823H30.0567V284.383H18.4965V272.823ZM41.617 272.823H53.1773V284.383H41.617V272.823ZM53.1773 272.823H64.7376V284.383H53.1773V272.823ZM64.7376 272.823H76.2979V284.383H64.7376V272.823ZM87.8582 272.823H99.4184V284.383H87.8582V272.823ZM110.979 272.823H122.539V284.383H110.979V272.823ZM168.78 272.823H180.34V284.383H168.78V272.823ZM180.34 272.823H191.901V284.383H180.34V272.823ZM191.901 272.823H203.461V284.383H191.901V272.823ZM203.461 272.823H215.021V284.383H203.461V272.823ZM215.021 272.823H226.582V284.383H215.021V272.823ZM238.142 272.823H249.702V284.383H238.142V272.823ZM249.702 272.823H261.262V284.383H249.702V272.823ZM261.262 272.823H272.823V284.383H261.262V272.823ZM284.383 272.823H295.943V284.383H284.383V272.823ZM295.943 272.823H307.504V284.383H295.943V272.823ZM18.4965 284.383H30.0567V295.943H18.4965V284.383ZM87.8582 284.383H99.4184V295.943H87.8582V284.383ZM110.979 284.383H122.539V295.943H110.979V284.383ZM122.539 284.383H134.099V295.943H122.539V284.383ZM134.099 284.383H145.66V295.943H134.099V284.383ZM168.78 284.383H180.34V295.943H168.78V284.383ZM203.461 284.383H215.021V295.943H203.461V284.383ZM215.021 284.383H226.582V295.943H215.021V284.383ZM226.582 284.383H238.142V295.943H226.582V284.383ZM238.142 284.383H249.702V295.943H238.142V284.383ZM249.702 284.383H261.262V295.943H249.702V284.383ZM18.4965 295.943H30.0567V307.504H18.4965V295.943ZM30.0567 295.943H41.617V307.504H30.0567V295.943ZM41.617 295.943H53.1773V307.504H41.617V295.943ZM53.1773 295.943H64.7376V307.504H53.1773V295.943ZM64.7376 295.943H76.2979V307.504H64.7376V295.943ZM76.2979 295.943H87.8582V307.504H76.2979V295.943ZM87.8582 295.943H99.4184V307.504H87.8582V295.943ZM134.099 295.943H145.66V307.504H134.099V295.943ZM157.22 295.943H168.78V307.504H157.22V295.943ZM203.461 295.943H215.021V307.504H203.461V295.943ZM226.582 295.943H238.142V307.504H226.582V295.943ZM261.262 295.943H272.823V307.504H261.262V295.943ZM295.943 295.943H307.504V307.504H295.943V295.943Z" fill="#4F46E5"/>
</mask>
<g mask="url(#mask0_2_3)">
<rect width="326" height="326" fill="#6366F1"/>
</g>
</svg>
